<svg width="121" height="106" viewBox="0 0 121 106" fill="none" xmlns="http://www.w3.org/2000/svg">
<path d="M120.48 94.1824V105.482H65.8797V83.5824H43.8797V34.8824C42.9797 35.2824 42.1797 35.6824 41.2797 36.0824C35.9797 39.2824 32.9797 44.0824 32.9797 50.2824C32.8797 68.0824 32.9797 105.482 32.9797 105.482H21.4797L0.179687 83.6824L0.179687 27.8824C0.179687 13.9824 11.6797 1.78242 25.4797 0.882416C39.3797 -0.117584 51.2797 10.3824 54.1797 23.2824C54.1797 23.2824 60.4797 24.7824 64.3797 27.2824C72.4797 32.7824 76.7797 40.3824 76.8797 50.1824C76.9797 57.0824 76.8797 72.3824 76.8797 72.3824H98.2797L120.48 94.1824V94.1824ZM43.0797 23.3824C39.1797 12.6824 25.0797 8.28242 16.6797 15.8824C12.6797 19.4824 11.0797 24.1824 11.0797 29.5824C11.1797 41.6824 11.0797 78.7824 11.0797 78.7824L21.3797 90.0824C21.3797 90.6824 21.4797 64.2824 21.3797 50.2824C21.3797 38.8824 27.5797 30.6824 37.6797 25.4824C39.4797 24.6824 43.0797 23.3824 43.0797 23.3824V23.3824ZM54.9797 34.8824V72.3824H65.9797V50.4824C65.9797 46.6824 64.6797 42.9824 62.1797 39.9824C60.2797 37.6824 57.7797 35.8824 54.9797 34.8824ZM104.98 94.4824L93.5797 83.5824H76.7797V94.4824H104.98V94.4824Z" fill="#8E8E89"/>
</svg>
